<svg width="351" height="31" viewBox="0 0 351 31" fill="none" xmlns="http://www.w3.org/2000/svg">
<path d="M3.4 30V7.88C3.4 5.34667 4.12 3.46667 5.56 2.24C7 1.01333 9.12 0.4 11.92 0.4H14.72V5.2H11.64C10.92 5.2 10.36 5.4 9.96 5.8C9.56 6.2 9.36 6.76 9.36 7.48V30H3.4ZM0.8 13.2V8.52H15.04V13.2H0.8ZM28.1553 30.76C26.2886 30.76 24.6353 30.44 23.1953 29.8C21.782 29.16 20.5953 28.3067 19.6353 27.24C18.702 26.1467 17.982 24.9333 17.4753 23.6C16.9953 22.24 16.7553 20.8533 16.7553 19.44V18.64C16.7553 17.1733 16.9953 15.7733 17.4753 14.44C17.982 13.08 18.702 11.8667 19.6353 10.8C20.5686 9.73333 21.7286 8.89333 23.1153 8.28C24.5286 7.64 26.1286 7.32 27.9153 7.32C30.262 7.32 32.2353 7.85333 33.8353 8.92C35.462 9.96 36.702 11.3333 37.5553 13.04C38.4086 14.72 38.8353 16.56 38.8353 18.56V20.72H19.4353V17.08H34.9553L32.8753 18.76C32.8753 17.4533 32.6886 16.3333 32.3153 15.4C31.942 14.4667 31.382 13.76 30.6353 13.28C29.9153 12.7733 29.0086 12.52 27.9153 12.52C26.7953 12.52 25.8486 12.7733 25.0753 13.28C24.302 13.7867 23.7153 14.5333 23.3153 15.52C22.9153 16.48 22.7153 17.6667 22.7153 19.08C22.7153 20.3867 22.902 21.5333 23.2753 22.52C23.6486 23.48 24.2353 24.2267 25.0353 24.76C25.8353 25.2933 26.8753 25.56 28.1553 25.56C29.3286 25.56 30.2886 25.3333 31.0353 24.88C31.782 24.4267 32.2886 23.8667 32.5553 23.2H38.4353C38.1153 24.6667 37.4886 25.9733 36.5553 27.12C35.622 28.2667 34.4486 29.16 33.0353 29.8C31.622 30.44 29.9953 30.76 28.1553 30.76ZM43.0763 30V8.08H48.1563V17.48H48.0363C48.0363 14.3867 48.6896 12 49.9963 10.32C51.3296 8.64 53.2496 7.8 55.7563 7.8H56.5963V13.32H54.9963C53.2363 13.32 51.8763 13.8 50.9163 14.76C49.9563 15.6933 49.4763 17.0533 49.4763 18.84V30H43.0763ZM59.9122 30V8.08H64.9922V17.48H64.6322C64.6322 15.24 64.9122 13.3733 65.4722 11.88C66.0589 10.3867 66.9389 9.26667 68.1122 8.52C69.2855 7.77333 70.7122 7.4 72.3922 7.4H72.6722C75.2322 7.4 77.1789 8.24 78.5122 9.92C79.8722 11.5733 80.5522 14.0933 80.5522 17.48V30H74.1522V17.12C74.1522 15.9467 73.8055 14.9867 73.1122 14.24C72.4189 13.4933 71.4855 13.12 70.3122 13.12C69.1122 13.12 68.1389 13.5067 67.3922 14.28C66.6722 15.0267 66.3122 16.0133 66.3122 17.24V30H59.9122ZM99.2459 30V23.52H98.1659V16.48C98.1659 15.36 97.8993 14.52 97.3659 13.96C96.8326 13.4 95.9793 13.12 94.8059 13.12C94.2193 13.12 93.4459 13.1333 92.4859 13.16C91.5259 13.1867 90.5393 13.2267 89.5259 13.28C88.5126 13.3333 87.5926 13.3867 86.7659 13.44V8.04C87.3793 7.98667 88.0993 7.93333 88.9259 7.88C89.7526 7.82667 90.6059 7.78667 91.4859 7.76C92.3659 7.73333 93.1926 7.72 93.9659 7.72C96.2059 7.72 98.0859 8.04 99.6059 8.68C101.153 9.32 102.326 10.2933 103.126 11.6C103.926 12.88 104.326 14.5333 104.326 16.56V30H99.2459ZM92.2459 30.56C90.6726 30.56 89.2859 30.28 88.0859 29.72C86.9126 29.16 85.9926 28.36 85.3259 27.32C84.6593 26.2533 84.3259 24.9867 84.3259 23.52C84.3259 21.92 84.7393 20.6133 85.5659 19.6C86.3926 18.56 87.5526 17.8 89.0459 17.32C90.5393 16.8133 92.2593 16.56 94.2059 16.56H98.8859V20.12H94.1659C93.0459 20.12 92.1793 20.4 91.5659 20.96C90.9793 21.4933 90.6859 22.2267 90.6859 23.16C90.6859 24.04 90.9793 24.76 91.5659 25.32C92.1793 25.8533 93.0459 26.12 94.1659 26.12C94.8859 26.12 95.5259 26 96.0859 25.76C96.6726 25.4933 97.1526 25.0533 97.5259 24.44C97.8993 23.8267 98.1126 22.9733 98.1659 21.88L99.6859 23.48C99.5526 25 99.1793 26.28 98.5659 27.32C97.9793 28.36 97.1526 29.16 96.0859 29.72C95.0459 30.28 93.7659 30.56 92.2459 30.56ZM109.756 30V8.08H114.836V17.48H114.476C114.476 15.24 114.756 13.3733 115.316 11.88C115.903 10.3867 116.783 9.26667 117.956 8.52C119.129 7.77333 120.556 7.4 122.236 7.4H122.516C125.076 7.4 127.023 8.24 128.356 9.92C129.716 11.5733 130.396 14.0933 130.396 17.48V30H123.996V17.12C123.996 15.9467 123.649 14.9867 122.956 14.24C122.263 13.4933 121.329 13.12 120.156 13.12C118.956 13.12 117.983 13.5067 117.236 14.28C116.516 15.0267 116.156 16.0133 116.156 17.24V30H109.756ZM144.89 30.72C143.343 30.72 141.93 30.44 140.65 29.88C139.396 29.32 138.303 28.5467 137.37 27.56C136.436 26.5467 135.716 25.36 135.21 24C134.73 22.64 134.49 21.1733 134.49 19.6V18.68C134.49 17.1067 134.716 15.64 135.17 14.28C135.65 12.92 136.33 11.7333 137.21 10.72C138.116 9.68 139.196 8.88 140.45 8.32C141.703 7.73333 143.103 7.44 144.65 7.44C146.41 7.44 147.93 7.82667 149.21 8.6C150.49 9.34667 151.49 10.4667 152.21 11.96C152.93 13.4267 153.33 15.24 153.41 17.4L151.73 15.84V0.799999H158.17V30H153.09V20.92H153.97C153.89 23 153.45 24.7733 152.65 26.24C151.876 27.7067 150.823 28.8267 149.49 29.6C148.156 30.3467 146.623 30.72 144.89 30.72ZM146.49 25.36C147.476 25.36 148.37 25.1467 149.17 24.72C149.996 24.2667 150.65 23.6133 151.13 22.76C151.636 21.9067 151.89 20.88 151.89 19.68V18.2C151.89 17.0267 151.636 16.04 151.13 15.24C150.623 14.44 149.956 13.8267 149.13 13.4C148.303 12.9733 147.41 12.76 146.45 12.76C145.383 12.76 144.423 13.04 143.57 13.6C142.743 14.1333 142.09 14.88 141.61 15.84C141.13 16.7733 140.89 17.8667 140.89 19.12C140.89 20.4 141.13 21.5067 141.61 22.44C142.09 23.3733 142.756 24.0933 143.61 24.6C144.463 25.1067 145.423 25.36 146.49 25.36ZM177.215 30V23.52H176.135V16.48C176.135 15.36 175.868 14.52 175.335 13.96C174.801 13.4 173.948 13.12 172.775 13.12C172.188 13.12 171.415 13.1333 170.455 13.16C169.495 13.1867 168.508 13.2267 167.495 13.28C166.481 13.3333 165.561 13.3867 164.735 13.44V8.04C165.348 7.98667 166.068 7.93333 166.895 7.88C167.721 7.82667 168.575 7.78667 169.455 7.76C170.335 7.73333 171.161 7.72 171.935 7.72C174.175 7.72 176.055 8.04 177.575 8.68C179.121 9.32 180.295 10.2933 181.095 11.6C181.895 12.88 182.295 14.5333 182.295 16.56V30H177.215ZM170.215 30.56C168.641 30.56 167.255 30.28 166.055 29.72C164.881 29.16 163.961 28.36 163.295 27.32C162.628 26.2533 162.295 24.9867 162.295 23.52C162.295 21.92 162.708 20.6133 163.535 19.6C164.361 18.56 165.521 17.8 167.015 17.32C168.508 16.8133 170.228 16.56 172.175 16.56H176.855V20.12H172.135C171.015 20.12 170.148 20.4 169.535 20.96C168.948 21.4933 168.655 22.2267 168.655 23.16C168.655 24.04 168.948 24.76 169.535 25.32C170.148 25.8533 171.015 26.12 172.135 26.12C172.855 26.12 173.495 26 174.055 25.76C174.641 25.4933 175.121 25.0533 175.495 24.44C175.868 23.8267 176.081 22.9733 176.135 21.88L177.655 23.48C177.521 25 177.148 26.28 176.535 27.32C175.948 28.36 175.121 29.16 174.055 29.72C173.015 30.28 171.735 30.56 170.215 30.56ZM196.883 30V8.64H199.923V17.8H199.443C199.443 15.72 199.71 13.96 200.243 12.52C200.803 11.0533 201.63 9.93333 202.723 9.16C203.816 8.38667 205.203 8 206.883 8H207.043C208.723 8 210.11 8.38667 211.203 9.16C212.323 9.93333 213.15 11.0533 213.683 12.52C214.216 13.96 214.483 15.72 214.483 17.8H213.363C213.363 15.72 213.643 13.96 214.203 12.52C214.763 11.0533 215.59 9.93333 216.683 9.16C217.803 8.38667 219.203 8 220.883 8H221.043C222.723 8 224.123 8.38667 225.243 9.16C226.363 9.93333 227.19 11.0533 227.723 12.52C228.283 13.96 228.563 15.72 228.563 17.8V30H224.723V16.96C224.723 15.2267 224.296 13.8933 223.443 12.96C222.59 12 221.403 11.52 219.883 11.52C218.31 11.52 217.043 12.0267 216.083 13.04C215.123 14.0267 214.643 15.4133 214.643 17.2V30H210.803V16.96C210.803 15.2267 210.376 13.8933 209.523 12.96C208.67 12 207.483 11.52 205.963 11.52C204.39 11.52 203.123 12.0267 202.163 13.04C201.203 14.0267 200.723 15.4133 200.723 17.2V30H196.883ZM245.434 30.72C243.567 30.72 241.927 30.4 240.514 29.76C239.101 29.12 237.901 28.28 236.914 27.24C235.954 26.1733 235.221 24.9867 234.714 23.68C234.234 22.3733 233.994 21.04 233.994 19.68V18.96C233.994 17.6 234.247 16.2667 234.754 14.96C235.261 13.6267 236.007 12.44 236.994 11.4C237.981 10.3333 239.181 9.49333 240.594 8.88C242.007 8.24 243.621 7.92 245.434 7.92C247.247 7.92 248.861 8.24 250.274 8.88C251.687 9.49333 252.887 10.3333 253.874 11.4C254.861 12.44 255.607 13.6267 256.114 14.96C256.621 16.2667 256.874 17.6 256.874 18.96V19.68C256.874 21.04 256.621 22.3733 256.114 23.68C255.634 24.9867 254.901 26.1733 253.914 27.24C252.954 28.28 251.767 29.12 250.354 29.76C248.941 30.4 247.301 30.72 245.434 30.72ZM245.434 27.28C247.034 27.28 248.394 26.9333 249.514 26.24C250.661 25.52 251.527 24.56 252.114 23.36C252.727 22.16 253.034 20.8133 253.034 19.32C253.034 17.8 252.727 16.44 252.114 15.24C251.501 14.04 250.621 13.0933 249.474 12.4C248.354 11.7067 247.007 11.36 245.434 11.36C243.887 11.36 242.541 11.7067 241.394 12.4C240.247 13.0933 239.367 14.04 238.754 15.24C238.141 16.44 237.834 17.8 237.834 19.32C237.834 20.8133 238.127 22.16 238.714 23.36C239.327 24.56 240.194 25.52 241.314 26.24C242.461 26.9333 243.834 27.28 245.434 27.28ZM262.625 30V8.64H265.665V17.8H265.185C265.185 15.6933 265.465 13.92 266.025 12.48C266.612 11.0133 267.492 9.90667 268.665 9.16C269.839 8.38667 271.319 8 273.105 8H273.265C275.959 8 277.945 8.84 279.225 10.52C280.532 12.2 281.185 14.6267 281.185 17.8V30H277.345V17C277.345 15.3467 276.879 14.0267 275.945 13.04C275.012 12.0267 273.732 11.52 272.105 11.52C270.425 11.52 269.065 12.04 268.025 13.08C266.985 14.12 266.465 15.5067 266.465 17.24V30H262.625ZM288.211 30V8.64H291.251V17.44H291.091C291.091 14.32 291.771 12.04 293.131 10.6C294.518 9.13333 296.585 8.4 299.331 8.4H300.051V11.84H298.691C296.558 11.84 294.918 12.4133 293.771 13.56C292.625 14.68 292.051 16.3067 292.051 18.44V30H288.211ZM314.223 30.72C312.356 30.72 310.716 30.4 309.303 29.76C307.89 29.12 306.69 28.28 305.703 27.24C304.743 26.1733 304.01 24.9867 303.503 23.68C303.023 22.3733 302.783 21.04 302.783 19.68V18.96C302.783 17.6 303.036 16.2667 303.543 14.96C304.05 13.6267 304.796 12.44 305.783 11.4C306.77 10.3333 307.97 9.49333 309.383 8.88C310.796 8.24 312.41 7.92 314.223 7.92C316.036 7.92 317.65 8.24 319.063 8.88C320.476 9.49333 321.676 10.3333 322.663 11.4C323.65 12.44 324.396 13.6267 324.903 14.96C325.41 16.2667 325.663 17.6 325.663 18.96V19.68C325.663 21.04 325.41 22.3733 324.903 23.68C324.423 24.9867 323.69 26.1733 322.703 27.24C321.743 28.28 320.556 29.12 319.143 29.76C317.73 30.4 316.09 30.72 314.223 30.72ZM314.223 27.28C315.823 27.28 317.183 26.9333 318.303 26.24C319.45 25.52 320.316 24.56 320.903 23.36C321.516 22.16 321.823 20.8133 321.823 19.32C321.823 17.8 321.516 16.44 320.903 15.24C320.29 14.04 319.41 13.0933 318.263 12.4C317.143 11.7067 315.796 11.36 314.223 11.36C312.676 11.36 311.33 11.7067 310.183 12.4C309.036 13.0933 308.156 14.04 307.543 15.24C306.93 16.44 306.623 17.8 306.623 19.32C306.623 20.8133 306.916 22.16 307.503 23.36C308.116 24.56 308.983 25.52 310.103 26.24C311.25 26.9333 312.623 27.28 314.223 27.28ZM340.494 30.72C338.628 30.72 337.014 30.4 335.654 29.76C334.294 29.12 333.188 28.28 332.334 27.24C331.481 26.1733 330.841 24.9867 330.414 23.68C330.014 22.3733 329.814 21.04 329.814 19.68V18.96C329.814 17.5733 330.014 16.2267 330.414 14.92C330.841 13.6133 331.481 12.44 332.334 11.4C333.188 10.3333 334.268 9.49333 335.574 8.88C336.908 8.24 338.468 7.92 340.254 7.92C342.574 7.92 344.481 8.42667 345.974 9.44C347.494 10.4267 348.614 11.7067 349.334 13.28C350.081 14.8533 350.454 16.5333 350.454 18.32V20.04H331.494V17.16H347.654L346.774 18.72C346.774 17.2 346.534 15.8933 346.054 14.8C345.574 13.68 344.854 12.8133 343.894 12.2C342.934 11.5867 341.721 11.28 340.254 11.28C338.734 11.28 337.468 11.6267 336.454 12.32C335.468 13.0133 334.721 13.96 334.214 15.16C333.734 16.36 333.494 17.7467 333.494 19.32C333.494 20.84 333.734 22.2133 334.214 23.44C334.721 24.64 335.494 25.6 336.534 26.32C337.574 27.0133 338.894 27.36 340.494 27.36C342.174 27.36 343.534 26.9867 344.574 26.24C345.641 25.4933 346.281 24.6267 346.494 23.64H350.094C349.801 25.1067 349.214 26.3733 348.334 27.44C347.454 28.5067 346.348 29.32 345.014 29.88C343.681 30.44 342.174 30.72 340.494 30.72Z" fill="white"/>
</svg>
