<svg width="340" height="37" viewBox="0 0 340 37" fill="none" xmlns="http://www.w3.org/2000/svg">
<path d="M0.504 36V9.696H6.6V20.976H6.168C6.168 18.288 6.504 16.048 7.176 14.256C7.88 12.464 8.936 11.12 10.344 10.224C11.752 9.328 13.464 8.88 15.48 8.88H15.816C18.888 8.88 21.224 9.888 22.824 11.904C24.456 13.888 25.272 16.912 25.272 20.976V36H17.592V20.544C17.592 19.136 17.176 17.984 16.344 17.088C15.512 16.192 14.392 15.744 12.984 15.744C11.544 15.744 10.376 16.208 9.48 17.136C8.616 18.032 8.184 19.216 8.184 20.688V36H0.504ZM47.7045 36V28.224H46.4085V19.776C46.4085 18.432 46.0885 17.424 45.4485 16.752C44.8085 16.08 43.7845 15.744 42.3765 15.744C41.6725 15.744 40.7445 15.76 39.5925 15.792C38.4405 15.824 37.2565 15.872 36.0405 15.936C34.8245 16 33.7205 16.064 32.7285 16.128V9.648C33.4645 9.584 34.3285 9.52 35.3205 9.456C36.3125 9.392 37.3365 9.344 38.3925 9.312C39.4485 9.28 40.4405 9.264 41.3685 9.264C44.0565 9.264 46.3125 9.648 48.1365 10.416C49.9925 11.184 51.4005 12.352 52.3605 13.92C53.3205 15.456 53.8005 17.44 53.8005 19.872V36H47.7045ZM39.3045 36.672C37.4165 36.672 35.7525 36.336 34.3125 35.664C32.9045 34.992 31.8005 34.032 31.0005 32.784C30.2005 31.504 29.8005 29.984 29.8005 28.224C29.8005 26.304 30.2965 24.736 31.2885 23.52C32.2805 22.272 33.6725 21.36 35.4645 20.784C37.2565 20.176 39.3205 19.872 41.6565 19.872H47.2725V24.144H41.6085C40.2645 24.144 39.2245 24.48 38.4885 25.152C37.7845 25.792 37.4325 26.672 37.4325 27.792C37.4325 28.848 37.7845 29.712 38.4885 30.384C39.2245 31.024 40.2645 31.344 41.6085 31.344C42.4725 31.344 43.2405 31.2 43.9125 30.912C44.6165 30.592 45.1925 30.064 45.6405 29.328C46.0885 28.592 46.3445 27.568 46.4085 26.256L48.2325 28.176C48.0725 30 47.6245 31.536 46.8885 32.784C46.1845 34.032 45.1925 34.992 43.9125 35.664C42.6645 36.336 41.1285 36.672 39.3045 36.672ZM60.3165 36V9.696H66.4125V20.976H65.9805C65.9805 18.288 66.3165 16.048 66.9885 14.256C67.6925 12.464 68.7485 11.12 70.1565 10.224C71.5645 9.328 73.2765 8.88 75.2925 8.88H75.6285C78.7005 8.88 81.0365 9.888 82.6365 11.904C84.2685 13.888 85.0845 16.912 85.0845 20.976V36H77.4045V20.544C77.4045 19.136 76.9885 17.984 76.1565 17.088C75.3245 16.192 74.2045 15.744 72.7965 15.744C71.3565 15.744 70.1885 16.208 69.2925 17.136C68.4285 18.032 67.9965 19.216 67.9965 20.688V36H60.3165ZM102.477 36.864C100.621 36.864 98.925 36.528 97.389 35.856C95.885 35.184 94.573 34.256 93.453 33.072C92.333 31.856 91.469 30.432 90.861 28.8C90.285 27.168 89.997 25.408 89.997 23.52V22.416C89.997 20.528 90.269 18.768 90.813 17.136C91.389 15.504 92.205 14.08 93.261 12.864C94.349 11.616 95.645 10.656 97.149 9.984C98.653 9.28 100.333 8.928 102.189 8.928C104.301 8.928 106.125 9.392 107.661 10.32C109.197 11.216 110.397 12.56 111.261 14.352C112.125 16.112 112.605 18.288 112.701 20.88L110.685 19.008V0.959999H118.413V36H112.317V25.104H113.373C113.277 27.6 112.749 29.728 111.789 31.488C110.861 33.248 109.597 34.592 107.997 35.52C106.397 36.416 104.557 36.864 102.477 36.864ZM104.397 30.432C105.581 30.432 106.653 30.176 107.613 29.664C108.605 29.12 109.389 28.336 109.965 27.312C110.573 26.288 110.877 25.056 110.877 23.616V21.84C110.877 20.432 110.573 19.248 109.965 18.288C109.357 17.328 108.557 16.592 107.565 16.08C106.573 15.568 105.501 15.312 104.349 15.312C103.069 15.312 101.917 15.648 100.893 16.32C99.901 16.96 99.117 17.856 98.541 19.008C97.965 20.128 97.677 21.44 97.677 22.944C97.677 24.48 97.965 25.808 98.541 26.928C99.117 28.048 99.917 28.912 100.941 29.52C101.965 30.128 103.117 30.432 104.397 30.432ZM141.267 36V28.224H139.971V19.776C139.971 18.432 139.651 17.424 139.011 16.752C138.371 16.08 137.347 15.744 135.939 15.744C135.235 15.744 134.307 15.76 133.155 15.792C132.003 15.824 130.819 15.872 129.603 15.936C128.387 16 127.283 16.064 126.291 16.128V9.648C127.027 9.584 127.891 9.52 128.883 9.456C129.875 9.392 130.899 9.344 131.955 9.312C133.011 9.28 134.003 9.264 134.931 9.264C137.619 9.264 139.875 9.648 141.699 10.416C143.555 11.184 144.963 12.352 145.923 13.92C146.883 15.456 147.363 17.44 147.363 19.872V36H141.267ZM132.867 36.672C130.979 36.672 129.315 36.336 127.875 35.664C126.467 34.992 125.363 34.032 124.563 32.784C123.763 31.504 123.363 29.984 123.363 28.224C123.363 26.304 123.859 24.736 124.851 23.52C125.843 22.272 127.235 21.36 129.027 20.784C130.819 20.176 132.883 19.872 135.219 19.872H140.835V24.144H135.171C133.827 24.144 132.787 24.48 132.051 25.152C131.347 25.792 130.995 26.672 130.995 27.792C130.995 28.848 131.347 29.712 132.051 30.384C132.787 31.024 133.827 31.344 135.171 31.344C136.035 31.344 136.803 31.2 137.475 30.912C138.179 30.592 138.755 30.064 139.203 29.328C139.651 28.592 139.907 27.568 139.971 26.256L141.795 28.176C141.635 30 141.187 31.536 140.451 32.784C139.747 34.032 138.755 34.992 137.475 35.664C136.227 36.336 134.691 36.672 132.867 36.672ZM154.791 36V10.368H158.439V21.36H157.863C157.863 18.864 158.183 16.752 158.823 15.024C159.495 13.264 160.487 11.92 161.799 10.992C163.111 10.064 164.775 9.6 166.791 9.6H166.983C168.999 9.6 170.663 10.064 171.975 10.992C173.319 11.92 174.311 13.264 174.951 15.024C175.591 16.752 175.911 18.864 175.911 21.36H174.567C174.567 18.864 174.903 16.752 175.575 15.024C176.247 13.264 177.239 11.92 178.551 10.992C179.895 10.064 181.575 9.6 183.591 9.6H183.783C185.799 9.6 187.479 10.064 188.823 10.992C190.167 11.92 191.159 13.264 191.799 15.024C192.471 16.752 192.807 18.864 192.807 21.36V36H188.199V20.352C188.199 18.272 187.687 16.672 186.663 15.552C185.639 14.4 184.215 13.824 182.391 13.824C180.503 13.824 178.983 14.432 177.831 15.648C176.679 16.832 176.103 18.496 176.103 20.64V36H171.495V20.352C171.495 18.272 170.983 16.672 169.959 15.552C168.935 14.4 167.511 13.824 165.687 13.824C163.799 13.824 162.279 14.432 161.127 15.648C159.975 16.832 159.399 18.496 159.399 20.64V36H154.791ZM213.052 36.864C210.812 36.864 208.844 36.48 207.148 35.712C205.452 34.944 204.012 33.936 202.828 32.688C201.676 31.408 200.796 29.984 200.188 28.416C199.612 26.848 199.324 25.248 199.324 23.616V22.752C199.324 21.12 199.628 19.52 200.236 17.952C200.844 16.352 201.74 14.928 202.924 13.68C204.108 12.4 205.548 11.392 207.244 10.656C208.94 9.888 210.876 9.504 213.052 9.504C215.228 9.504 217.164 9.888 218.86 10.656C220.556 11.392 221.996 12.4 223.18 13.68C224.364 14.928 225.26 16.352 225.868 17.952C226.476 19.52 226.78 21.12 226.78 22.752V23.616C226.78 25.248 226.476 26.848 225.868 28.416C225.292 29.984 224.412 31.408 223.228 32.688C222.076 33.936 220.652 34.944 218.956 35.712C217.26 36.48 215.292 36.864 213.052 36.864ZM213.052 32.736C214.972 32.736 216.604 32.32 217.948 31.488C219.324 30.624 220.364 29.472 221.068 28.032C221.804 26.592 222.172 24.976 222.172 23.184C222.172 21.36 221.804 19.728 221.068 18.288C220.332 16.848 219.276 15.712 217.9 14.88C216.556 14.048 214.94 13.632 213.052 13.632C211.196 13.632 209.58 14.048 208.204 14.88C206.828 15.712 205.772 16.848 205.036 18.288C204.3 19.728 203.932 21.36 203.932 23.184C203.932 24.976 204.284 26.592 204.988 28.032C205.724 29.472 206.764 30.624 208.108 31.488C209.484 32.32 211.132 32.736 213.052 32.736ZM233.682 36V10.368H237.33V21.36H236.754C236.754 18.832 237.09 16.704 237.762 14.976C238.466 13.216 239.522 11.888 240.93 10.992C242.338 10.064 244.114 9.6 246.258 9.6H246.45C249.682 9.6 252.066 10.608 253.602 12.624C255.17 14.64 255.954 17.552 255.954 21.36V36H251.346V20.4C251.346 18.416 250.786 16.832 249.666 15.648C248.546 14.432 247.01 13.824 245.058 13.824C243.042 13.824 241.41 14.448 240.162 15.696C238.914 16.944 238.29 18.608 238.29 20.688V36H233.682ZM264.385 36V10.368H268.033V20.928H267.841C267.841 17.184 268.657 14.448 270.289 12.72C271.953 10.96 274.433 10.08 277.729 10.08H278.593V14.208H276.961C274.401 14.208 272.433 14.896 271.057 16.272C269.681 17.616 268.993 19.568 268.993 22.128V36H264.385ZM295.599 36.864C293.359 36.864 291.391 36.48 289.695 35.712C287.999 34.944 286.559 33.936 285.375 32.688C284.223 31.408 283.343 29.984 282.735 28.416C282.159 26.848 281.871 25.248 281.871 23.616V22.752C281.871 21.12 282.175 19.52 282.783 17.952C283.391 16.352 284.287 14.928 285.471 13.68C286.655 12.4 288.095 11.392 289.791 10.656C291.487 9.888 293.423 9.504 295.599 9.504C297.775 9.504 299.711 9.888 301.407 10.656C303.103 11.392 304.543 12.4 305.727 13.68C306.911 14.928 307.807 16.352 308.415 17.952C309.023 19.52 309.327 21.12 309.327 22.752V23.616C309.327 25.248 309.023 26.848 308.415 28.416C307.839 29.984 306.959 31.408 305.775 32.688C304.623 33.936 303.199 34.944 301.503 35.712C299.807 36.48 297.839 36.864 295.599 36.864ZM295.599 32.736C297.519 32.736 299.151 32.32 300.495 31.488C301.871 30.624 302.911 29.472 303.615 28.032C304.351 26.592 304.719 24.976 304.719 23.184C304.719 21.36 304.351 19.728 303.615 18.288C302.879 16.848 301.823 15.712 300.447 14.88C299.103 14.048 297.487 13.632 295.599 13.632C293.743 13.632 292.127 14.048 290.751 14.88C289.375 15.712 288.319 16.848 287.583 18.288C286.847 19.728 286.479 21.36 286.479 23.184C286.479 24.976 286.831 26.592 287.535 28.032C288.271 29.472 289.311 30.624 290.655 31.488C292.031 32.32 293.679 32.736 295.599 32.736ZM327.125 36.864C324.885 36.864 322.949 36.48 321.317 35.712C319.685 34.944 318.357 33.936 317.333 32.688C316.309 31.408 315.541 29.984 315.029 28.416C314.549 26.848 314.309 25.248 314.309 23.616V22.752C314.309 21.088 314.549 19.472 315.029 17.904C315.541 16.336 316.309 14.928 317.333 13.68C318.357 12.4 319.653 11.392 321.221 10.656C322.821 9.888 324.693 9.504 326.837 9.504C329.621 9.504 331.909 10.112 333.701 11.328C335.525 12.512 336.869 14.048 337.733 15.936C338.629 17.824 339.077 19.84 339.077 21.984V24.048H316.325V20.592H335.717L334.661 22.464C334.661 20.64 334.373 19.072 333.797 17.76C333.221 16.416 332.357 15.376 331.205 14.64C330.053 13.904 328.597 13.536 326.837 13.536C325.013 13.536 323.493 13.952 322.277 14.784C321.093 15.616 320.197 16.752 319.589 18.192C319.013 19.632 318.725 21.296 318.725 23.184C318.725 25.008 319.013 26.656 319.589 28.128C320.197 29.568 321.125 30.72 322.373 31.584C323.621 32.416 325.205 32.832 327.125 32.832C329.141 32.832 330.773 32.384 332.021 31.488C333.301 30.592 334.069 29.552 334.325 28.368H338.645C338.293 30.128 337.589 31.648 336.533 32.928C335.477 34.208 334.149 35.184 332.549 35.856C330.949 36.528 329.141 36.864 327.125 36.864Z" fill="white"/>
</svg>
