<svg width="241" height="26" viewBox="0 0 241 26" fill="none" xmlns="http://www.w3.org/2000/svg">
<path d="M0.482 25V6.368H4.8V14.358H4.494C4.494 12.454 4.732 10.8673 5.208 9.598C5.70667 8.32867 6.45467 7.37667 7.452 6.742C8.44933 6.10733 9.662 5.79 11.09 5.79H11.328C13.504 5.79 15.1587 6.504 16.292 7.932C17.448 9.33733 18.026 11.4793 18.026 14.358V25H12.586V14.052C12.586 13.0547 12.2913 12.2387 11.702 11.604C11.1127 10.9693 10.3193 10.652 9.322 10.652C8.302 10.652 7.47467 10.9807 6.84 11.638C6.228 12.2727 5.922 13.1113 5.922 14.154V25H0.482ZM33.9157 25V19.492H32.9977V13.508C32.9977 12.556 32.771 11.842 32.3177 11.366C31.8644 10.89 31.139 10.652 30.1417 10.652C29.643 10.652 28.9857 10.6633 28.1697 10.686C27.3537 10.7087 26.515 10.7427 25.6537 10.788C24.7924 10.8333 24.0104 10.8787 23.3077 10.924V6.334C23.829 6.28867 24.441 6.24333 25.1437 6.198C25.8464 6.15267 26.5717 6.11867 27.3197 6.096C28.0677 6.07333 28.7704 6.062 29.4277 6.062C31.3317 6.062 32.9297 6.334 34.2217 6.878C35.5364 7.422 36.5337 8.24933 37.2137 9.36C37.8937 10.448 38.2337 11.8533 38.2337 13.576V25H33.9157ZM27.9657 25.476C26.6284 25.476 25.4497 25.238 24.4297 24.762C23.4324 24.286 22.6504 23.606 22.0837 22.722C21.517 21.8153 21.2337 20.7387 21.2337 19.492C21.2337 18.132 21.585 17.0213 22.2877 16.16C22.9904 15.276 23.9764 14.63 25.2457 14.222C26.515 13.7913 27.977 13.576 29.6317 13.576H33.6097V16.602H29.5977C28.6457 16.602 27.909 16.84 27.3877 17.316C26.889 17.7693 26.6397 18.3927 26.6397 19.186C26.6397 19.934 26.889 20.546 27.3877 21.022C27.909 21.4753 28.6457 21.702 29.5977 21.702C30.2097 21.702 30.7537 21.6 31.2297 21.396C31.7284 21.1693 32.1364 20.7953 32.4537 20.274C32.771 19.7527 32.9524 19.0273 32.9977 18.098L34.2897 19.458C34.1764 20.75 33.859 21.838 33.3377 22.722C32.839 23.606 32.1364 24.286 31.2297 24.762C30.3457 25.238 29.2577 25.476 27.9657 25.476ZM42.8492 25V6.368H47.1672V14.358H46.8612C46.8612 12.454 47.0992 10.8673 47.5752 9.598C48.0739 8.32867 48.8219 7.37667 49.8192 6.742C50.8165 6.10733 52.0292 5.79 53.4572 5.79H53.6952C55.8712 5.79 57.5259 6.504 58.6592 7.932C59.8152 9.33733 60.3932 11.4793 60.3932 14.358V25H54.9532V14.052C54.9532 13.0547 54.6585 12.2387 54.0692 11.604C53.4799 10.9693 52.6865 10.652 51.6892 10.652C50.6692 10.652 49.8419 10.9807 49.2072 11.638C48.5952 12.2727 48.2892 13.1113 48.2892 14.154V25H42.8492ZM72.7129 25.612C71.3982 25.612 70.1969 25.374 69.1089 24.898C68.0435 24.422 67.1142 23.7647 66.3209 22.926C65.5275 22.0647 64.9155 21.056 64.4849 19.9C64.0769 18.744 63.8729 17.4973 63.8729 16.16V15.378C63.8729 14.0407 64.0655 12.794 64.4509 11.638C64.8589 10.482 65.4369 9.47333 66.1849 8.612C66.9555 7.728 67.8735 7.048 68.9389 6.572C70.0042 6.07333 71.1942 5.824 72.5089 5.824C74.0049 5.824 75.2969 6.15267 76.3849 6.81C77.4729 7.44467 78.3229 8.39667 78.9349 9.666C79.5469 10.9127 79.8869 12.454 79.9549 14.29L78.5269 12.964V0.179999H84.0009V25H79.6829V17.282H80.4309C80.3629 19.05 79.9889 20.5573 79.3089 21.804C78.6515 23.0507 77.7562 24.0027 76.6229 24.66C75.4895 25.2947 74.1862 25.612 72.7129 25.612ZM74.0729 21.056C74.9115 21.056 75.6709 20.8747 76.3509 20.512C77.0535 20.1267 77.6089 19.5713 78.0169 18.846C78.4475 18.1207 78.6629 17.248 78.6629 16.228V14.97C78.6629 13.9727 78.4475 13.134 78.0169 12.454C77.5862 11.774 77.0195 11.2527 76.3169 10.89C75.6142 10.5273 74.8549 10.346 74.0389 10.346C73.1322 10.346 72.3162 10.584 71.5909 11.06C70.8882 11.5133 70.3329 12.148 69.9249 12.964C69.5169 13.7573 69.3129 14.6867 69.3129 15.752C69.3129 16.84 69.5169 17.7807 69.9249 18.574C70.3329 19.3673 70.8995 19.9793 71.6249 20.41C72.3502 20.8407 73.1662 21.056 74.0729 21.056ZM100.189 25V19.492H99.2711V13.508C99.2711 12.556 99.0445 11.842 98.5911 11.366C98.1378 10.89 97.4125 10.652 96.4151 10.652C95.9165 10.652 95.2591 10.6633 94.4431 10.686C93.6271 10.7087 92.7885 10.7427 91.9271 10.788C91.0658 10.8333 90.2838 10.8787 89.5811 10.924V6.334C90.1025 6.28867 90.7145 6.24333 91.4171 6.198C92.1198 6.15267 92.8451 6.11867 93.5931 6.096C94.3411 6.07333 95.0438 6.062 95.7011 6.062C97.6051 6.062 99.2031 6.334 100.495 6.878C101.81 7.422 102.807 8.24933 103.487 9.36C104.167 10.448 104.507 11.8533 104.507 13.576V25H100.189ZM94.2391 25.476C92.9018 25.476 91.7231 25.238 90.7031 24.762C89.7058 24.286 88.9238 23.606 88.3571 22.722C87.7905 21.8153 87.5071 20.7387 87.5071 19.492C87.5071 18.132 87.8585 17.0213 88.5611 16.16C89.2638 15.276 90.2498 14.63 91.5191 14.222C92.7885 13.7913 94.2505 13.576 95.9051 13.576H99.8831V16.602H95.8711C94.9191 16.602 94.1825 16.84 93.6611 17.316C93.1625 17.7693 92.9131 18.3927 92.9131 19.186C92.9131 19.934 93.1625 20.546 93.6611 21.022C94.1825 21.4753 94.9191 21.702 95.8711 21.702C96.4831 21.702 97.0271 21.6 97.5031 21.396C98.0018 21.1693 98.4098 20.7953 98.7271 20.274C99.0445 19.7527 99.2258 19.0273 99.2711 18.098L100.563 19.458C100.45 20.75 100.132 21.838 99.6111 22.722C99.1125 23.606 98.4098 24.286 97.5031 24.762C96.6191 25.238 95.5311 25.476 94.2391 25.476ZM109.769 25V6.844H112.353V14.63H111.945C111.945 12.862 112.171 11.366 112.625 10.142C113.101 8.89533 113.803 7.94333 114.733 7.286C115.662 6.62867 116.841 6.3 118.269 6.3H118.405C119.833 6.3 121.011 6.62867 121.941 7.286C122.893 7.94333 123.595 8.89533 124.049 10.142C124.502 11.366 124.729 12.862 124.729 14.63H123.777C123.777 12.862 124.015 11.366 124.491 10.142C124.967 8.89533 125.669 7.94333 126.599 7.286C127.551 6.62867 128.741 6.3 130.169 6.3H130.305C131.733 6.3 132.923 6.62867 133.875 7.286C134.827 7.94333 135.529 8.89533 135.983 10.142C136.459 11.366 136.697 12.862 136.697 14.63V25H133.433V13.916C133.433 12.4427 133.07 11.3093 132.345 10.516C131.619 9.7 130.611 9.292 129.319 9.292C127.981 9.292 126.905 9.72267 126.089 10.584C125.273 11.4227 124.865 12.6013 124.865 14.12V25H121.601V13.916C121.601 12.4427 121.238 11.3093 120.513 10.516C119.787 9.7 118.779 9.292 117.487 9.292C116.149 9.292 115.073 9.72267 114.257 10.584C113.441 11.4227 113.033 12.6013 113.033 14.12V25H109.769ZM151.037 25.612C149.45 25.612 148.056 25.34 146.855 24.796C145.654 24.252 144.634 23.538 143.795 22.654C142.979 21.7473 142.356 20.7387 141.925 19.628C141.517 18.5173 141.313 17.384 141.313 16.228V15.616C141.313 14.46 141.528 13.3267 141.959 12.216C142.39 11.0827 143.024 10.074 143.863 9.19C144.702 8.28333 145.722 7.56933 146.923 7.048C148.124 6.504 149.496 6.232 151.037 6.232C152.578 6.232 153.95 6.504 155.151 7.048C156.352 7.56933 157.372 8.28333 158.211 9.19C159.05 10.074 159.684 11.0827 160.115 12.216C160.546 13.3267 160.761 14.46 160.761 15.616V16.228C160.761 17.384 160.546 18.5173 160.115 19.628C159.707 20.7387 159.084 21.7473 158.245 22.654C157.429 23.538 156.42 24.252 155.219 24.796C154.018 25.34 152.624 25.612 151.037 25.612ZM151.037 22.688C152.397 22.688 153.553 22.3933 154.505 21.804C155.48 21.192 156.216 20.376 156.715 19.356C157.236 18.336 157.497 17.1913 157.497 15.922C157.497 14.63 157.236 13.474 156.715 12.454C156.194 11.434 155.446 10.6293 154.471 10.04C153.519 9.45067 152.374 9.156 151.037 9.156C149.722 9.156 148.578 9.45067 147.603 10.04C146.628 10.6293 145.88 11.434 145.359 12.454C144.838 13.474 144.577 14.63 144.577 15.922C144.577 17.1913 144.826 18.336 145.325 19.356C145.846 20.376 146.583 21.192 147.535 21.804C148.51 22.3933 149.677 22.688 151.037 22.688ZM165.649 25V6.844H168.233V14.63H167.825C167.825 12.8393 168.063 11.332 168.539 10.108C169.038 8.86133 169.786 7.92067 170.783 7.286C171.781 6.62867 173.039 6.3 174.557 6.3H174.693C176.983 6.3 178.671 7.014 179.759 8.442C180.87 9.87 181.425 11.9327 181.425 14.63V25H178.161V13.95C178.161 12.5447 177.765 11.4227 176.971 10.584C176.178 9.72267 175.09 9.292 173.707 9.292C172.279 9.292 171.123 9.734 170.239 10.618C169.355 11.502 168.913 12.6807 168.913 14.154V25H165.649ZM187.398 25V6.844H189.982V14.324H189.846C189.846 11.672 190.424 9.734 191.58 8.51C192.758 7.26333 194.515 6.64 196.85 6.64H197.462V9.564H196.306C194.492 9.564 193.098 10.0513 192.124 11.026C191.149 11.978 190.662 13.3607 190.662 15.174V25H187.398ZM209.508 25.612C207.921 25.612 206.527 25.34 205.326 24.796C204.124 24.252 203.104 23.538 202.266 22.654C201.45 21.7473 200.826 20.7387 200.396 19.628C199.988 18.5173 199.784 17.384 199.784 16.228V15.616C199.784 14.46 199.999 13.3267 200.43 12.216C200.86 11.0827 201.495 10.074 202.334 9.19C203.172 8.28333 204.192 7.56933 205.394 7.048C206.595 6.504 207.966 6.232 209.508 6.232C211.049 6.232 212.42 6.504 213.622 7.048C214.823 7.56933 215.843 8.28333 216.682 9.19C217.52 10.074 218.155 11.0827 218.586 12.216C219.016 13.3267 219.232 14.46 219.232 15.616V16.228C219.232 17.384 219.016 18.5173 218.586 19.628C218.178 20.7387 217.554 21.7473 216.716 22.654C215.9 23.538 214.891 24.252 213.69 24.796C212.488 25.34 211.094 25.612 209.508 25.612ZM209.508 22.688C210.868 22.688 212.024 22.3933 212.976 21.804C213.95 21.192 214.687 20.376 215.186 19.356C215.707 18.336 215.968 17.1913 215.968 15.922C215.968 14.63 215.707 13.474 215.186 12.454C214.664 11.434 213.916 10.6293 212.942 10.04C211.99 9.45067 210.845 9.156 209.508 9.156C208.193 9.156 207.048 9.45067 206.074 10.04C205.099 10.6293 204.351 11.434 203.83 12.454C203.308 13.474 203.048 14.63 203.048 15.922C203.048 17.1913 203.297 18.336 203.796 19.356C204.317 20.376 205.054 21.192 206.006 21.804C206.98 22.3933 208.148 22.688 209.508 22.688ZM231.838 25.612C230.252 25.612 228.88 25.34 227.724 24.796C226.568 24.252 225.628 23.538 224.902 22.654C224.177 21.7473 223.633 20.7387 223.27 19.628C222.93 18.5173 222.76 17.384 222.76 16.228V15.616C222.76 14.4373 222.93 13.2927 223.27 12.182C223.633 11.0713 224.177 10.074 224.902 9.19C225.628 8.28333 226.546 7.56933 227.656 7.048C228.79 6.504 230.116 6.232 231.634 6.232C233.606 6.232 235.227 6.66267 236.496 7.524C237.788 8.36267 238.74 9.45067 239.352 10.788C239.987 12.1253 240.304 13.5533 240.304 15.072V16.534H224.188V14.086H237.924L237.176 15.412C237.176 14.12 236.972 13.0093 236.564 12.08C236.156 11.128 235.544 10.3913 234.728 9.87C233.912 9.34867 232.881 9.088 231.634 9.088C230.342 9.088 229.266 9.38267 228.404 9.972C227.566 10.5613 226.931 11.366 226.5 12.386C226.092 13.406 225.888 14.5847 225.888 15.922C225.888 17.214 226.092 18.3813 226.5 19.424C226.931 20.444 227.588 21.26 228.472 21.872C229.356 22.4613 230.478 22.756 231.838 22.756C233.266 22.756 234.422 22.4387 235.306 21.804C236.213 21.1693 236.757 20.4327 236.938 19.594H239.998C239.749 20.8407 239.25 21.9173 238.502 22.824C237.754 23.7307 236.814 24.422 235.68 24.898C234.547 25.374 233.266 25.612 231.838 25.612Z" fill="white"/>
</svg>
