<svg width="560" height="50" viewBox="0 0 560 50" fill="none" xmlns="http://www.w3.org/2000/svg">
<path d="M4.44 48V12.608C4.44 8.55467 5.592 5.54667 7.896 3.584C10.2 1.62133 13.592 0.639999 18.072 0.639999H22.552V8.32H17.624C16.472 8.32 15.576 8.64 14.936 9.28C14.296 9.92 13.976 10.816 13.976 11.968V48H4.44ZM0.28 21.12V13.632H23.064V21.12H0.28ZM44.0485 49.216C41.0618 49.216 38.4165 48.704 36.1125 47.68C33.8512 46.656 31.9525 45.2907 30.4165 43.584C28.9232 41.8347 27.7712 39.8933 26.9605 37.76C26.1925 35.584 25.8085 33.3653 25.8085 31.104V29.824C25.8085 27.4773 26.1925 25.2373 26.9605 23.104C27.7712 20.928 28.9232 18.9867 30.4165 17.28C31.9098 15.5733 33.7658 14.2293 35.9845 13.248C38.2458 12.224 40.8058 11.712 43.6645 11.712C47.4192 11.712 50.5765 12.5653 53.1365 14.272C55.7392 15.936 57.7232 18.1333 59.0885 20.864C60.4538 23.552 61.1365 26.496 61.1365 29.696V33.152H30.0965V27.328H54.9285L51.6005 30.016C51.6005 27.9253 51.3018 26.1333 50.7045 24.64C50.1072 23.1467 49.2112 22.016 48.0165 21.248C46.8645 20.4373 45.4138 20.032 43.6645 20.032C41.8725 20.032 40.3578 20.4373 39.1205 21.248C37.8832 22.0587 36.9445 23.2533 36.3045 24.832C35.6645 26.368 35.3445 28.2667 35.3445 30.528C35.3445 32.6187 35.6432 34.4533 36.2405 36.032C36.8378 37.568 37.7765 38.7627 39.0565 39.616C40.3365 40.4693 42.0005 40.896 44.0485 40.896C45.9258 40.896 47.4618 40.5333 48.6565 39.808C49.8512 39.0827 50.6618 38.1867 51.0885 37.12H60.4965C59.9845 39.4667 58.9818 41.5573 57.4885 43.392C55.9952 45.2267 54.1178 46.656 51.8565 47.68C49.5952 48.704 46.9925 49.216 44.0485 49.216ZM67.922 48V12.928H76.05V27.968H75.858C75.858 23.0187 76.9033 19.2 78.994 16.512C81.1273 13.824 84.1993 12.48 88.21 12.48H89.554V21.312H86.994C84.178 21.312 82.002 22.08 80.466 23.616C78.93 25.1093 78.162 27.2853 78.162 30.144V48H67.922ZM94.8595 48V12.928H102.988V27.968H102.412C102.412 24.384 102.86 21.3973 103.756 19.008C104.694 16.6187 106.102 14.8267 107.98 13.632C109.857 12.4373 112.14 11.84 114.828 11.84H115.276C119.372 11.84 122.486 13.184 124.62 15.872C126.796 18.5173 127.884 22.5493 127.884 27.968V48H117.644V27.392C117.644 25.5147 117.089 23.9787 115.98 22.784C114.87 21.5893 113.377 20.992 111.5 20.992C109.58 20.992 108.022 21.6107 106.828 22.848C105.676 24.0427 105.1 25.6213 105.1 27.584V48H94.8595ZM157.794 48V37.632H156.066V26.368C156.066 24.576 155.639 23.232 154.786 22.336C153.932 21.44 152.567 20.992 150.69 20.992C149.751 20.992 148.514 21.0133 146.978 21.056C145.442 21.0987 143.863 21.1627 142.242 21.248C140.62 21.3333 139.148 21.4187 137.826 21.504V12.864C138.807 12.7787 139.959 12.6933 141.282 12.608C142.604 12.5227 143.97 12.4587 145.378 12.416C146.786 12.3733 148.108 12.352 149.346 12.352C152.93 12.352 155.938 12.864 158.37 13.888C160.844 14.912 162.722 16.4693 164.002 18.56C165.282 20.608 165.922 23.2533 165.922 26.496V48H157.794ZM146.594 48.896C144.076 48.896 141.858 48.448 139.938 47.552C138.06 46.656 136.588 45.376 135.522 43.712C134.455 42.0053 133.922 39.9787 133.922 37.632C133.922 35.072 134.583 32.9813 135.906 31.36C137.228 29.696 139.084 28.48 141.474 27.712C143.863 26.9013 146.615 26.496 149.73 26.496H157.218V32.192H149.666C147.874 32.192 146.487 32.64 145.506 33.536C144.567 34.3893 144.098 35.5627 144.098 37.056C144.098 38.464 144.567 39.616 145.506 40.512C146.487 41.3653 147.874 41.792 149.666 41.792C150.818 41.792 151.842 41.6 152.738 41.216C153.676 40.7893 154.444 40.0853 155.042 39.104C155.639 38.1227 155.98 36.7573 156.066 35.008L158.498 37.568C158.284 40 157.687 42.048 156.706 43.712C155.767 45.376 154.444 46.656 152.738 47.552C151.074 48.448 149.026 48.896 146.594 48.896ZM174.61 48V12.928H182.738V27.968H182.162C182.162 24.384 182.61 21.3973 183.506 19.008C184.444 16.6187 185.852 14.8267 187.73 13.632C189.607 12.4373 191.89 11.84 194.578 11.84H195.026C199.122 11.84 202.236 13.184 204.37 15.872C206.546 18.5173 207.634 22.5493 207.634 27.968V48H197.394V27.392C197.394 25.5147 196.839 23.9787 195.73 22.784C194.62 21.5893 193.127 20.992 191.25 20.992C189.33 20.992 187.772 21.6107 186.578 22.848C185.426 24.0427 184.85 25.6213 184.85 27.584V48H174.61ZM230.824 49.152C228.349 49.152 226.088 48.704 224.04 47.808C222.034 46.912 220.285 45.6747 218.792 44.096C217.298 42.4747 216.146 40.576 215.336 38.4C214.568 36.224 214.184 33.8773 214.184 31.36V29.888C214.184 27.3707 214.546 25.024 215.272 22.848C216.04 20.672 217.128 18.7733 218.536 17.152C219.986 15.488 221.714 14.208 223.72 13.312C225.725 12.3733 227.965 11.904 230.44 11.904C233.256 11.904 235.688 12.5227 237.736 13.76C239.784 14.9547 241.384 16.7467 242.536 19.136C243.688 21.4827 244.328 24.384 244.456 27.84L241.768 25.344V1.28H252.072V48H243.944V33.472H245.352C245.224 36.8 244.52 39.6373 243.24 41.984C242.002 44.3307 240.317 46.1227 238.184 47.36C236.05 48.5547 233.597 49.152 230.824 49.152ZM233.384 40.576C234.962 40.576 236.392 40.2347 237.672 39.552C238.994 38.8267 240.04 37.7813 240.808 36.416C241.618 35.0507 242.024 33.408 242.024 31.488V29.12C242.024 27.2427 241.618 25.664 240.808 24.384C239.997 23.104 238.93 22.1227 237.608 21.44C236.285 20.7573 234.856 20.416 233.32 20.416C231.613 20.416 230.077 20.864 228.712 21.76C227.389 22.6133 226.344 23.808 225.576 25.344C224.808 26.8373 224.424 28.5867 224.424 30.592C224.424 32.64 224.808 34.4107 225.576 35.904C226.344 37.3973 227.41 38.5493 228.776 39.36C230.141 40.1707 231.677 40.576 233.384 40.576ZM282.544 48V37.632H280.816V26.368C280.816 24.576 280.389 23.232 279.536 22.336C278.682 21.44 277.317 20.992 275.44 20.992C274.501 20.992 273.264 21.0133 271.728 21.056C270.192 21.0987 268.613 21.1627 266.992 21.248C265.37 21.3333 263.898 21.4187 262.576 21.504V12.864C263.557 12.7787 264.709 12.6933 266.032 12.608C267.354 12.5227 268.72 12.4587 270.128 12.416C271.536 12.3733 272.858 12.352 274.096 12.352C277.68 12.352 280.688 12.864 283.12 13.888C285.594 14.912 287.472 16.4693 288.752 18.56C290.032 20.608 290.672 23.2533 290.672 26.496V48H282.544ZM271.344 48.896C268.826 48.896 266.608 48.448 264.688 47.552C262.81 46.656 261.338 45.376 260.272 43.712C259.205 42.0053 258.672 39.9787 258.672 37.632C258.672 35.072 259.333 32.9813 260.656 31.36C261.978 29.696 263.834 28.48 266.224 27.712C268.613 26.9013 271.365 26.496 274.48 26.496H281.968V32.192H274.416C272.624 32.192 271.237 32.64 270.256 33.536C269.317 34.3893 268.848 35.5627 268.848 37.056C268.848 38.464 269.317 39.616 270.256 40.512C271.237 41.3653 272.624 41.792 274.416 41.792C275.568 41.792 276.592 41.6 277.488 41.216C278.426 40.7893 279.194 40.0853 279.792 39.104C280.389 38.1227 280.73 36.7573 280.816 35.008L283.248 37.568C283.034 40 282.437 42.048 281.456 43.712C280.517 45.376 279.194 46.656 277.488 47.552C275.824 48.448 273.776 48.896 271.344 48.896ZM314.013 48V13.824H318.877V28.48H318.109C318.109 25.152 318.536 22.336 319.389 20.032C320.285 17.6853 321.608 15.8933 323.357 14.656C325.106 13.4187 327.325 12.8 330.013 12.8H330.269C332.957 12.8 335.176 13.4187 336.925 14.656C338.717 15.8933 340.04 17.6853 340.893 20.032C341.746 22.336 342.173 25.152 342.173 28.48H340.381C340.381 25.152 340.829 22.336 341.725 20.032C342.621 17.6853 343.944 15.8933 345.693 14.656C347.485 13.4187 349.725 12.8 352.413 12.8H352.669C355.357 12.8 357.597 13.4187 359.389 14.656C361.181 15.8933 362.504 17.6853 363.357 20.032C364.253 22.336 364.701 25.152 364.701 28.48V48H358.557V27.136C358.557 24.3627 357.874 22.2293 356.509 20.736C355.144 19.2 353.245 18.432 350.813 18.432C348.296 18.432 346.269 19.2427 344.733 20.864C343.197 22.4427 342.429 24.6613 342.429 27.52V48H336.285V27.136C336.285 24.3627 335.602 22.2293 334.237 20.736C332.872 19.2 330.973 18.432 328.541 18.432C326.024 18.432 323.997 19.2427 322.461 20.864C320.925 22.4427 320.157 24.6613 320.157 27.52V48H314.013ZM391.695 49.152C388.708 49.152 386.084 48.64 383.823 47.616C381.561 46.592 379.641 45.248 378.062 43.584C376.527 41.8773 375.353 39.9787 374.543 37.888C373.775 35.7973 373.391 33.664 373.391 31.488V30.336C373.391 28.16 373.796 26.0267 374.607 23.936C375.417 21.8027 376.612 19.904 378.191 18.24C379.769 16.5333 381.689 15.1893 383.951 14.208C386.212 13.184 388.793 12.672 391.695 12.672C394.596 12.672 397.177 13.184 399.439 14.208C401.7 15.1893 403.62 16.5333 405.199 18.24C406.777 19.904 407.972 21.8027 408.783 23.936C409.593 26.0267 409.999 28.16 409.999 30.336V31.488C409.999 33.664 409.593 35.7973 408.783 37.888C408.015 39.9787 406.841 41.8773 405.263 43.584C403.727 45.248 401.828 46.592 399.567 47.616C397.305 48.64 394.681 49.152 391.695 49.152ZM391.695 43.648C394.255 43.648 396.431 43.0933 398.223 41.984C400.057 40.832 401.444 39.296 402.382 37.376C403.364 35.456 403.854 33.3013 403.854 30.912C403.854 28.48 403.364 26.304 402.382 24.384C401.401 22.464 399.993 20.9493 398.159 19.84C396.367 18.7307 394.212 18.176 391.695 18.176C389.22 18.176 387.065 18.7307 385.231 19.84C383.396 20.9493 381.988 22.464 381.007 24.384C380.025 26.304 379.535 28.48 379.535 30.912C379.535 33.3013 380.004 35.456 380.943 37.376C381.924 39.296 383.311 40.832 385.103 41.984C386.937 43.0933 389.135 43.648 391.695 43.648ZM419.201 48V13.824H424.065V28.48H423.297C423.297 25.1093 423.745 22.272 424.641 19.968C425.579 17.6213 426.987 15.8507 428.865 14.656C430.742 13.4187 433.11 12.8 435.969 12.8H436.225C440.534 12.8 443.713 14.144 445.761 16.832C447.851 19.52 448.897 23.4027 448.897 28.48V48H442.753V27.2C442.753 24.5547 442.006 22.4427 440.513 20.864C439.019 19.2427 436.971 18.432 434.369 18.432C431.681 18.432 429.505 19.264 427.841 20.928C426.177 22.592 425.345 24.8107 425.345 27.584V48H419.201ZM460.138 48V13.824H465.002V27.904H464.746C464.746 22.912 465.834 19.264 468.01 16.96C470.229 14.6133 473.535 13.44 477.93 13.44H479.082V18.944H476.906C473.493 18.944 470.869 19.8613 469.034 21.696C467.199 23.488 466.282 26.0907 466.282 29.504V48H460.138ZM501.757 49.152C498.77 49.152 496.146 48.64 493.885 47.616C491.624 46.592 489.704 45.248 488.125 43.584C486.589 41.8773 485.416 39.9787 484.605 37.888C483.837 35.7973 483.453 33.664 483.453 31.488V30.336C483.453 28.16 483.858 26.0267 484.669 23.936C485.48 21.8027 486.674 19.904 488.253 18.24C489.832 16.5333 491.752 15.1893 494.013 14.208C496.274 13.184 498.856 12.672 501.757 12.672C504.658 12.672 507.24 13.184 509.501 14.208C511.762 15.1893 513.682 16.5333 515.261 18.24C516.84 19.904 518.034 21.8027 518.845 23.936C519.656 26.0267 520.061 28.16 520.061 30.336V31.488C520.061 33.664 519.656 35.7973 518.845 37.888C518.077 39.9787 516.904 41.8773 515.325 43.584C513.789 45.248 511.89 46.592 509.629 47.616C507.368 48.64 504.744 49.152 501.757 49.152ZM501.757 43.648C504.317 43.648 506.493 43.0933 508.285 41.984C510.12 40.832 511.506 39.296 512.445 37.376C513.426 35.456 513.917 33.3013 513.917 30.912C513.917 28.48 513.426 26.304 512.445 24.384C511.464 22.464 510.056 20.9493 508.221 19.84C506.429 18.7307 504.274 18.176 501.757 18.176C499.282 18.176 497.128 18.7307 495.293 19.84C493.458 20.9493 492.05 22.464 491.069 24.384C490.088 26.304 489.597 28.48 489.597 30.912C489.597 33.3013 490.066 35.456 491.005 37.376C491.986 39.296 493.373 40.832 495.165 41.984C497 43.0933 499.197 43.648 501.757 43.648ZM543.791 49.152C540.804 49.152 538.223 48.64 536.047 47.616C533.871 46.592 532.1 45.248 530.735 43.584C529.37 41.8773 528.346 39.9787 527.663 37.888C527.023 35.7973 526.703 33.664 526.703 31.488V30.336C526.703 28.1173 527.023 25.9627 527.663 23.872C528.346 21.7813 529.37 19.904 530.735 18.24C532.1 16.5333 533.828 15.1893 535.919 14.208C538.052 13.184 540.548 12.672 543.407 12.672C547.119 12.672 550.17 13.4827 552.559 15.104C554.991 16.6827 556.783 18.7307 557.935 21.248C559.13 23.7653 559.727 26.4533 559.727 29.312V32.064H529.391V27.456H555.247L553.839 29.952C553.839 27.52 553.455 25.4293 552.687 23.68C551.919 21.888 550.767 20.5013 549.231 19.52C547.695 18.5387 545.754 18.048 543.407 18.048C540.975 18.048 538.948 18.6027 537.327 19.712C535.748 20.8213 534.554 22.336 533.743 24.256C532.975 26.176 532.591 28.3947 532.591 30.912C532.591 33.344 532.975 35.5413 533.743 37.504C534.554 39.424 535.791 40.96 537.455 42.112C539.119 43.2213 541.231 43.776 543.791 43.776C546.479 43.776 548.655 43.1787 550.319 41.984C552.026 40.7893 553.05 39.4027 553.391 37.824H559.151C558.682 40.1707 557.743 42.1973 556.335 43.904C554.927 45.6107 553.156 46.912 551.023 47.808C548.89 48.704 546.479 49.152 543.791 49.152Z" fill="white"/>
</svg>
